<?xml version="1.0" encoding="UTF-8"?>
<svg width="282.7" height="282.54" version="1.1" xmlns="http://www.w3.org/2000/svg">
 <g transform="translate(-221.45 -362.72)">
  <g transform="matrix(1.0021 -1.0021 1.0021 1.0021 -490.61 247.61)">
   <path d="m214.91 548.04-38.638 1.0102-2.2728 6.566 3.0304 3.0305 41.921 0.75761 157.08 1.0102h40.154l5.3033-5.3033-2.7779-6.8185-19.698-1.0102-20.203 0.25254-2.7779-15.405-6.8185-16.92-14.395-17.93-13.637-12.627-13.132-6.566-18.183-5.3033-22.728 1.2627-21.213 4.7982-13.385 5.5558-13.132 10.859-10.607 13.385-7.3236 9.3439-3.7881 10.354-3.283 12.879z" fill="#ffd119" stroke="#000" stroke-width="1px"/>
   <rect x="216.17" y="522.79" width="159.86" height="24.244" ry="7.3214" fill="#ff000a" fill-rule="evenodd" stroke="#000" stroke-width="1px"/>
   <g transform="translate(-17.8 72.845)">
    <path d="m191.54 487.67c-5.1108-4.0201-3.7661-12.777 2.2859-14.887 1.9011-0.66273 9.8679-1.1353 19.139-1.1353 11.859 0 15.968-0.31667 16.221-1.25 0.18609-0.6875 0.81278-3.7878 1.3926-6.8896 3.713-19.861 19.217-41.973 37.206-53.062 24.329-14.997 56.897-16.927 82.61-4.8943 23.515 11.004 42.69 34.143 48.048 57.981l1.7826 7.9312 18.367 0.34165 17.104 0.34165c9.4519 1.0841 8.2901 17.087 0.24154 17.5h-120.94c-118.97 0-120.98-0.0323-123.46-1.9775zm243.67-3.5939c2.5137-0.82861 3.4382-3.9412 0.37143-6.2286-2.5291-1.8863-29.037-1.2-120.46-1.2-116.89 0-119.29 0.0385-120.3 1.9343-1.4064 2.6279-1.3065 3.6516 0.53625 5.4943 1.4109 1.4109 13.664 1.5714 119.93 1.5714s116.73-0.5177 119.93-1.5714zm-42.522-13.35c1.1562-0.73196 1.21-1.8711 0.30207-6.3922-0.60767-3.0258-1.7803-7.1181-2.6059-9.094l-1.501-3.5925h-74.538-74.538l-1.4229 3.4055c-1.9451 4.6553-3.8799 14.339-3.1128 15.58 0.79688 1.2894 155.38 1.3808 157.42 0.0931zm-25.907-24.392c0-1.2467-5.7033-11.732-7.6223-14.014-2.8884-3.4339-3.0534-5.6733-0.41813-5.6733 4.3855 0 11.741 11.745 10.68 17.052l-0.58954 2.9477h7.975c5.7494 0 7.975-0.35183 7.975-1.2607 0-2.2674-8.5817-14.109-14.606-20.154-15.054-15.107-33.863-22.606-56.602-22.568-22.087 0.0373-39.401 6.8791-54.364 21.483-6.9462 6.7795-15.428 18.41-15.428 21.155 0 1.112 10.651 1.345 61.5 1.345 33.825 0 61.5-0.14078 61.5-0.31285zm-93.592-3.0652c-0.66235-1.726 3.9076-10.693 6.7697-13.283 1.6336-1.4784 2.0688-1.5146 3.2724-0.27199 1.1896 1.228 0.82283 2.3634-2.5624 7.9332-4.0012 6.5831-6.4147 8.3972-7.4797 5.6219zm74.817 0.12806c-2.0241-2.4825-3.6393-9.7364-2.436-10.94 1.6464-1.6464 3.9592 0.61949 5.3415 5.2333 1.6355 5.4587-0.18778 9.0397-2.9055 5.7064zm-87.874-3.2748c-1.0844-2.826 9.4309-16.475 12.692-16.475 3.5174 0 3.0228 2.0066-1.9744 8.0114-2.7658 3.3234-5.5038 6.9304-6.0846 8.0156-1.2549 2.3449-3.8107 2.5921-4.6334 0.44822zm27.069 0.17947c-0.66129-1.7233 2.0007-6.2188 4.1769-7.0539 2.1928-0.84146 2.9587 2.3169 1.2849 5.2989-1.6757 2.9854-4.6259 3.9334-5.4618 1.755z"/>
   </g>
  </g>
 </g>
</svg>
